# xmcd
#
# Track frame offsets:
#	150
#	16397
#	35895
#	52296
#	77170
#	90586
#	108295
#	128494
#	142069
#	155849
#
# Disc length: 2535 seconds
#
# Revision: 5
# Processed by: cddbd v1.5.1PL0 Copyright (c) Steve Scherf et al.
# Submitted via: MusicWizard 7.0.2
#
DISCID=8909e50a
DTITLE=Joss Stone - The Soul Sessions
DYEAR=2003
DGENRE=Soul
TTITLE0=The Chokin' Kind
TTITLE1=Super Duper Love (Are You Diggin' On Me?)
TTITLE2=Fell In Love With A Boy
TTITLE3=Victim Of A Foolish Heart
TTITLE4=Dirty Man
TTITLE5=Some Kind Of Wonderful
TTITLE6=I've Fallen In Love With You
TTITLE7=I Had A Dream
TTITLE8=All The King's Horses
TTITLE9=For The Love Of You (Pts. 1 and 2)
EXTD=YEAR: 2003
EXTT0=
EXTT1=(Are you diggin' on me?) Pt.1
EXTT2=
EXTT3=
EXTT4=
EXTT5=
EXTT6=
EXTT7=
EXTT8=
EXTT9=
PLAYORDER=
